<?xml version="1.0" encoding="UTF-8"?>
<svg width="32" height="32" viewBox="0 0 32 32" fill="none" xmlns="http://www.w3.org/2000/svg">
  <rect width="32" height="32" rx="8" fill="#1976D2"/>
  <path d="M16 8C11.58 8 8 11.58 8 16C8 20.42 11.58 24 16 24C20.42 24 24 20.42 24 16C24 11.58 20.42 8 16 8ZM16 22C12.69 22 10 19.31 10 16C10 12.69 12.69 10 16 10C19.31 10 22 12.69 22 16C22 19.31 19.31 22 16 22ZM16 12C13.79 12 12 13.79 12 16C12 18.21 13.79 20 16 20C18.21 20 20 18.21 20 16C20 13.79 18.21 12 16 12Z" fill="white"/>
</svg> 